PathFileType	4	(X/Y/Z)	D:\TRACE\v60_Jaco2_6-2-23\JustBodyDRS_Motion1_3-v60.trc
DataRate	CameraRate	NumFrames	NumMarkers	Units	OrigDataRate	OrigDataStartFrame	OrigNumFrames
100.00	100.00	      20	9	mm	100.00	4308	      6892
Frame#	Time	front left toe			Front right toe			aft left toe			aft right toe			Arm			FL body			FR body			AL Body			AR Body			
		X1	Y1	Z1	X2	Y2	Z2	X3	Y3	Z3	X4	Y4	Z4	X5	Y5	Z5	X6	Y6	Z6	X7	Y7	Z7	X8	Y8	Z8	X9	Y9	Z9	

4308	43.070	-236.30321	130.68677	-188.56943	146.72646	13.03513	-202.08629	-226.81992	20.49917	426.21368	143.92752	140.18985	435.22363	-180.48512	1205.97278	-324.21500	-136.76903	575.02551	-328.15164	23.04727	579.52423	-331.13272	-121.31824	560.60492	617.41742	35.40260	558.44556	615.27112	
4309	43.080	-237.83881	125.25601	-190.93124	147.50578	12.92539	-201.95816	-226.25227	20.80863	426.04053	140.13425	133.63713	433.81131	-180.68219	1205.72864	-325.30154	-136.28763	574.85516	-328.79333	23.46359	579.29932	-331.58752	-121.76852	560.96558	616.95673	34.36837	558.76495	615.03015	
4310	43.090	-239.45515	119.42273	-193.45729	148.39105	12.73871	-202.00977	-225.11986	20.81975	426.00729	136.55246	126.22906	432.11618	-179.68988	1205.60559	-326.16452	-136.19139	574.54688	-329.82208	24.02546	579.09283	-331.99591	-122.31984	561.02484	616.59088	33.84242	559.25861	614.69775	
4311	43.100	-241.06380	113.30557	-196.12401	149.00827	12.54291	-202.19653	-224.66029	20.81338	425.96881	133.81851	117.97056	430.29843	-179.72545	1205.42004	-327.44547	-135.73343	574.36139	-330.19666	24.16809	578.56738	-332.08325	-123.45797	561.46936	615.78510	33.23051	559.42938	614.50568	
4312	43.110	-242.85121	106.36561	-198.62440	149.62627	12.33905	-202.25963	-224.30267	21.24127	425.62170	130.96552	110.00399	428.28287	-179.05060	1204.87573	-328.76007	-135.14670	574.00629	-330.88007	24.69526	578.16565	-332.57520	-123.95815	561.83282	615.18695	32.63969	559.63147	614.14972	
4313	43.120	-244.42072	98.56326	-201.04541	150.43289	12.24885	-202.35074	-223.86177	21.64992	425.42596	127.60016	101.71634	426.62927	-178.75226	1204.18542	-330.36661	-134.89305	573.58655	-331.69702	25.17521	577.85150	-332.92361	-124.62417	562.12195	614.48224	31.48247	560.05243	613.32001	
4314	43.130	-246.52536	90.59454	-203.48228	150.98875	12.23085	-202.33168	-222.79289	21.51686	425.24768	124.57899	93.26892	425.11008	-177.88692	1203.80847	-331.48380	-134.64680	573.28833	-332.37924	26.05445	577.47150	-333.65726	-125.07319	562.21680	614.23492	31.20584	560.42120	612.98560	
4315	43.140	-248.24208	82.49593	-205.41290	151.77341	11.87454	-202.55983	-222.11551	21.36733	425.35468	121.68855	84.63258	423.75287	-177.12541	1203.77234	-332.73499	-134.07622	572.86694	-333.17563	26.39313	577.13062	-334.41241	-125.98165	562.61383	613.27441	30.71638	560.65308	612.16174	
4316	43.150	-249.97539	74.51482	-207.19574	152.51466	11.72151	-202.54150	-221.59909	21.87651	425.11639	119.48151	76.00974	422.05966	-175.90854	1203.76257	-333.66989	-133.10574	572.63934	-333.57898	26.88153	576.76355	-334.93320	-126.43603	563.13165	612.24414	29.89142	560.72961	611.39709	
4317	43.160	-251.35956	66.85272	-208.88962	153.46341	11.69843	-202.57291	-220.99550	22.20005	424.83893	117.45107	67.75923	420.16840	-174.94879	1203.61108	-334.80927	-133.09396	572.64502	-334.71292	27.22142	576.46497	-335.56042	-127.23134	563.54291	611.29309	29.05499	560.75531	611.14056	
4318	43.170	-252.21016	59.15614	-210.37405	154.10745	11.61324	-202.59236	-219.90179	21.96635	424.57184	116.48776	59.92270	418.74149	-174.10046	1203.50854	-336.04834	-132.96431	572.47089	-335.84271	27.22094	576.10449	-336.07178	-127.85287	563.81244	610.56171	28.34603	561.04584	610.19403	
4319	43.180	-252.69228	51.92252	-211.46837	154.83951	11.65600	-202.71992	-220.09398	22.41206	424.44540	115.50188	52.58793	417.41220	-172.91644	1203.53479	-337.44876	-131.74954	572.14075	-336.24380	27.59438	575.99524	-337.00076	-128.89117	563.62305	609.74554	27.70637	561.13879	609.74384	
4320	43.190	-252.69075	44.67894	-212.89899	155.43066	11.58912	-202.71869	-219.27292	22.57389	424.34634	115.14532	45.68784	416.57098	-171.43465	1203.77222	-338.58142	-131.85638	572.36487	-337.86160	28.40183	575.84686	-338.05869	-129.50728	564.17297	608.43945	26.89185	561.18555	608.52643	
4321	43.200	-253.00975	38.76924	-214.57904	156.26796	11.51987	-202.84615	-218.66792	22.82902	424.08527	114.59498	39.18950	414.98798	-170.25133	1203.89697	-339.53262	-131.43994	572.45648	-338.77856	28.53827	575.69989	-338.91522	-130.29607	564.42938	607.25122	25.97169	561.24744	607.62329	
4322	43.210	-253.37685	32.27274	-216.30260	157.05811	11.40863	-202.98228	-218.13211	23.00807	423.72266	113.99406	33.00242	413.46774	-168.92450	1204.02039	-341.16150	-130.63528	572.29999	-339.73810	28.87287	575.60187	-339.70703	-131.09978	564.57404	606.21350	25.26895	561.34131	606.48694	
4323	43.220	-254.01028	25.92690	-218.23935	157.79597	11.29348	-202.92287	-217.57047	23.18052	423.60831	113.80048	28.19565	411.10400	-167.42093	1204.31250	-342.30365	-130.62869	572.32196	-341.36902	29.95842	575.44067	-341.22342	-131.81477	564.85016	604.74567	24.71535	561.36951	605.68054	
4324	43.230	-254.24561	19.00713	-220.30481	158.56194	11.32429	-202.87433	-216.77589	23.35050	423.73236	115.93533	27.89439	410.47827	-166.48007	1204.36938	-343.84589	-130.51863	572.35089	-342.92471	30.37273	575.06079	-342.26056	-132.87744	565.39600	603.44360	23.83558	561.97156	604.27917	
4325	43.240	-253.81482	14.43995	-222.60834	159.41599	11.26959	-202.88980	-215.81108	23.50178	423.45447	117.66167	28.32272	410.19009	-165.34439	1204.27405	-345.67023	-128.86870	571.40802	-343.94949	31.00471	574.59808	-343.61414	-133.61032	566.66766	601.88098	22.52885	563.45703	602.96246	
4326	43.250	-254.43538	13.58443	-222.65669	160.16035	11.16263	-202.82399	-215.23299	24.02390	423.19785	118.21230	29.45500	410.95584	-164.83171	1204.38953	-348.61819	-128.68988	571.73895	-346.04300	31.69739	574.35742	-344.67923	-134.32388	568.28247	600.59979	21.80791	565.03357	601.73114	
4327	43.260	-253.27180	11.69804	-223.52158	160.84982	11.38925	-203.34239	-214.31873	24.87093	422.58701	118.00854	29.77872	410.88699	-164.24773	1204.50146	-351.97351	-127.19999	572.55341	-346.86911	32.65878	575.07642	-345.85983	-135.13913	570.01111	599.20203	20.82864	566.03473	600.64453	
